# xmcd
#
# Track frame offsets:
#	150
#	26491
#	48557
#	58465
#	85621
#	105844
#	126018
#	136399
#	158504
#	178645
#	186070
#	204518
#	264207
#	296025
#	306818
#
# Disc length: 4413 seconds
#
# Revision: 0
# Processed by: cddbd v1.5.1PL0 Copyright (c) Steve Scherf et al.
# Submitted via: audiograbber 1.82.01
#
DISCID=c8113b0f
DTITLE=AD - Tocapo
DYEAR=1900
DGENRE=
TTITLE0=Tocapo
TTITLE1=Myrskyn tullen
TTITLE2=Moz
TTITLE3=Viesti
TTITLE4=Valpo
TTITLE5=Rockabilly
TTITLE6=Puhallatuuli
TTITLE7=Puolikuu
TTITLE8=Kovakowsky
TTITLE9=Interludi
TTITLE10=BD
TTITLE11=Haukon ep‰pyh‰‰ ilmaa
TTITLE12=Lintuja
TTITLE13=Postludi
TTITLE14=Hip Hip Hooray!
EXTD=
EXTT0=
EXTT1=
EXTT2=
EXTT3=
EXTT4=
EXTT5=
EXTT6=
EXTT7=
EXTT8=
EXTT9=
EXTT10=
EXTT11=
EXTT12=
EXTT13=
EXTT14=
PLAYORDER=
